Coordinates
version=1
nRows=11
nColumns=40
inDegrees=yes

Units are S.I. units (second, meters, Newtons, ...)
Angles are in degrees.

endheader
time	pelvis_tilt	pelvis_list	pelvis_rotation	pelvis_tx	pelvis_ty	pelvis_tz	hip_flexion_r	hip_adduction_r	hip_rotation_r	knee_angle_r	knee_angle_r_beta	ankle_angle_r	subtalar_angle_r	mtp_angle_r	hip_flexion_l	hip_adduction_l	hip_rotation_l	knee_angle_l	knee_angle_l_beta	ankle_angle_l	subtalar_angle_l	mtp_angle_l	lumbar_extension	lumbar_bending	lumbar_rotation	arm_flex_r	arm_add_r	arm_rot_r	elbow_flex_r	pro_sup_r	wrist_flex_r	wrist_dev_r	arm_flex_l	arm_add_l	arm_rot_l	elbow_flex_l	pro_sup_l	wrist_flex_l	wrist_dev_l
     43.73500000	     -6.16472236	     -4.48842126	     10.13497944	      0.97765315	      0.91920846	      0.45922682	     -0.35623035	      3.60069775	    -18.37558192	     12.73127725	     12.73127725	     17.69988463	     -0.50228922	     -1.81249428	     28.30625182	     -4.51181316	      2.65892392	     23.18302336	     23.18302336	      4.43711072	     -9.45132395	     -1.25036156	     -7.87812734	      2.26202663	      5.15464152	     49.00400739	    -18.52886552	    -13.23746707	     70.82766657	     42.19634262	      0.00000000	      0.00000000	     -4.33051824	     -8.24595262	     -3.57023044	     37.77915207	     43.31133730	      0.00000000	      0.00000000
     43.75428571	     -6.23727497	     -4.35682083	      9.78833188	      0.97795870	      0.91954940	      0.45572056	     -0.39803725	      3.01694728	    -18.55249545	     13.45477412	     13.45477412	     17.67326694	      0.06993141	     -2.34637732	     28.20545898	     -4.12613633	      3.07121945	     23.93660383	     23.93660383	      5.42360728	    -10.62045427	      0.81874201	     -7.90211580	      2.13803297	      5.02015577	     49.37901955	    -17.90753795	    -13.38180636	     68.09033947	     42.51830984	      0.00000000	      0.00000000	     -4.15699370	     -8.41855205	     -5.16745169	     41.40991965	     43.68985724	      0.00000000	      0.00000000
     43.77357143	     -6.27286017	     -4.37216861	      9.37812240	      0.97850196	      0.91996658	      0.45245022	     -0.59276261	      2.70930482	    -18.30305073	     13.87306169	     13.87306169	     17.53726346	      0.28194797	     -2.46067663	     27.94165136	     -4.04840069	      3.04171845	     24.39033271	     24.39033271	      5.88792560	    -11.19899167	      0.88144855	     -7.96299344	      2.19418905	      5.28470506	     48.88120950	    -17.88404001	    -13.35519851	     67.22262545	     42.57771543	      0.00000000	      0.00000000	     -2.84416711	     -8.62096375	     -5.36821583	     42.29073907	     43.75709693	      0.00000000	      0.00000000
     43.79285714	     -6.39985479	     -4.36482495	      8.95371955	      0.97898068	      0.92033819	      0.44908061	     -0.66645354	      2.30418952	    -18.27495257	     14.34049470	     14.34049470	     17.35650600	      0.74667748	     -2.73515568	     27.69295909	     -3.88122049	      3.11974024	     24.70516031	     24.70516031	      6.32833787	    -12.01511954	      1.45943070	     -7.86692904	      2.27536412	      5.58505493	     48.42875007	    -17.88358915	    -13.49062055	     65.62701212	     42.69466664	      0.00000000	      0.00000000	     -1.69476334	     -8.86518473	     -5.54685431	     43.61968223	     43.84370884	      0.00000000	      0.00000000
     43.81214286	     -6.43615016	     -4.42395213	      8.51365944	      0.97964073	      0.92075388	      0.44578269	     -0.93602848	      2.05546012	    -18.01886692	     14.58246826	     14.58246826	     17.15908402	      1.00237910	     -2.77327437	     27.36385230	     -3.86827061	      2.98760802	     25.03482474	     25.03482474	      6.70299904	    -12.46493944	      1.46201168	     -7.90106666	      2.47931274	      5.46502624	     47.70634636	    -17.38318427	    -13.37015620	     65.09468676	     42.71485517	      0.00000000	      0.00000000	     -0.52393581	     -9.23485877	     -5.60118358	     44.18633542	     43.87335422	      0.00000000	      0.00000000
     43.83142857	     -6.44660336	     -4.47813420	      8.06032941	      0.98027036	      0.92111201	      0.44241489	     -1.19778777	      1.77813461	    -17.74798904	     14.88399709	     14.88399709	     16.98994413	      1.32547315	     -2.85030056	     27.03237342	     -3.83629048	      2.86987736	     25.41518601	     25.41518601	      7.08082433	    -13.00994376	      1.50490863	     -7.96556327	      2.70454052	      5.39854131	     46.86167295	    -17.02738615	    -13.30755555	     64.34899095	     42.74337819	      0.00000000	      0.00000000	      0.64726326	     -9.61565692	     -5.63762414	     44.78054054	     43.90032494	      0.00000000	      0.00000000
     43.85071429	     -6.50390315	     -4.33938104	      7.58962017	      0.98077631	      0.92128852	      0.43868772	     -1.28106369	      1.05277106	    -18.26354716	     15.55823758	     15.55823758	     16.85389768	      2.76289321	     -3.88738703	     26.80599479	     -3.41515655	      3.19629958	     26.03409415	     26.03409415	      8.24396201	    -14.15057773	      4.21972355	     -7.84453666	      2.67003763	      5.11039791	     47.48630828	    -16.39114600	    -14.04092243	     58.84944759	     43.12224954	      0.00000000	      0.00000000	      1.27830697	    -10.43057363	     -4.13776655	     46.29933606	     43.90913742	      0.00000000	      0.00000000
     43.87000000	     -6.47090336	     -4.43643760	      7.09508063	      0.98145415	      0.92148325	      0.43529142	     -1.55674046	      0.80847353	    -17.90083387	     15.88996782	     15.88996782	     16.70074341	      2.98831691	     -3.94463075	     26.46176553	     -3.44636936	      3.00574446	     26.47392354	     26.47392354	      8.65412261	    -14.60002160	      4.16461458	     -7.92661682	      2.97811832	      4.93162055	     46.33521756	    -16.01185963	    -13.95496956	     58.16971926	     43.14623517	      0.00000000	      0.00000000	      2.40425006	    -10.84417386	     -4.17788802	     46.72779751	     43.93626251	      0.00000000	      0.00000000
     43.88928571	     -6.50107344	     -4.41786009	      6.58156153	      0.98192618	      0.92140746	      0.43165776	     -1.55746536	      0.25719116	    -17.88242974	     16.65965628	     16.65965628	     16.56461106	      3.68710369	     -4.71793952	     26.31482276	     -3.26240646	      2.96636422	     27.22660900	     27.22660900	      9.80587450	    -15.14909386	      6.04180173	     -7.81938774	      3.13996874	      5.03646702	     46.05531343	    -16.00957658	    -14.33270212	     53.84583186	     43.47196018	      0.00000000	      0.00000000	      3.92033315	    -11.51838109	     -2.25859524	     46.39526490	     43.93269456	      0.00000000	      0.00000000
     43.90857143	     -6.44709912	     -4.45666148	      6.05563243	      0.98246145	      0.92136461	      0.42808882	     -1.59373791	     -0.20890768	    -17.69608361	     17.48655632	     17.48655632	     16.38277749	      4.11215045	     -5.42347578	     26.03121297	     -3.18289759	      2.83761940	     27.85407304	     27.85407304	     10.64287351	    -15.64736616	      7.02292693	     -7.86835280	      3.40506197	      5.03851431	     45.14012349	    -15.88683665	    -14.55605130	     51.23278402	     43.70220010	      0.00000000	      0.00000000	      5.42141955	    -12.04838346	     -0.97638788	     45.97570854	     43.97384845	      0.00000000	      0.00000000
     43.92785714	     -6.42563717	     -4.50088857	      5.49825645	      0.98293494	      0.92114274	      0.42451631	     -1.35819772	     -0.74493291	    -17.38468114	     18.74603359	     18.74603359	     16.26536857	      4.29418913	     -6.05962048	     25.75589457	     -3.12656474	      2.61959737	     28.41391785	     28.41391785	     11.24076532	    -16.14799284	      7.24370443	     -7.90569482	      3.66894009	      5.06752245	     43.74853789	    -15.88230120	    -14.62264781	     49.40176648	     43.80953194	      0.00000000	      0.00000000	      6.81161012	    -12.36452168	     -0.47400617	     45.85127601	     43.99229115	      0.00000000	      0.00000000
